<?xml version="1.0" standalone="no"?>
<!DOCTYPE svg PUBLIC "-//W3C//DTD SVG 20010904//EN"
 "http://www.w3.org/TR/2001/REC-SVG-20010904/DTD/svg10.dtd">
<svg version="1.0" xmlns="http://www.w3.org/2000/svg"
 width="1232.000000pt" height="1232.000000pt" viewBox="0 0 1232.000000 1232.000000"
 preserveAspectRatio="xMidYMid meet">
<metadata>
Created by potrace 1.14, written by Peter Selinger 2001-2017
</metadata>
<g transform="translate(0.000000,1232.000000) scale(0.100000,-0.100000)"
fill="#000000" stroke="none">
<path d="M5295 12306 c-27 -8 -77 -19 -110 -26 -62 -14 -157 -37 -257 -64 -57
-16 -226 -70 -263 -85 -11 -5 -51 -21 -90 -36 -38 -15 -79 -31 -90 -35 -84
-33 -388 -184 -427 -211 -14 -11 -29 -19 -32 -19 -23 0 -323 -207 -460 -317
-178 -142 -440 -408 -566 -573 -19 -25 -43 -54 -52 -64 -10 -11 -18 -23 -18
-26 0 -4 -11 -20 -25 -36 -14 -16 -25 -32 -25 -36 0 -4 -6 -13 -14 -20 -20
-20 -155 -238 -212 -343 -116 -212 -211 -432 -289 -670 -29 -89 -92 -326 -104
-395 -75 -413 -76 -430 -76 -850 0 -395 2 -432 47 -695 25 -148 33 -192 53
-275 28 -115 33 -134 50 -190 9 -30 20 -68 25 -85 4 -16 24 -75 45 -130 20
-55 41 -113 47 -130 6 -16 15 -34 19 -40 5 -5 9 -14 9 -21 0 -10 86 -204 109
-245 5 -9 29 -52 52 -95 214 -396 518 -742 857 -979 39 -27 72 -57 72 -65 0
-9 -17 -24 -37 -35 -159 -81 -313 -222 -411 -376 -55 -86 -241 -391 -272 -444
-10 -16 -82 -136 -160 -265 -78 -129 -150 -248 -160 -265 -9 -16 -51 -84 -92
-151 -80 -129 -139 -244 -158 -309 -6 -22 -18 -65 -27 -95 -21 -68 -25 -382
-6 -445 6 -22 21 -72 33 -111 11 -39 41 -111 65 -159 25 -48 45 -93 45 -101 0
-7 -19 -50 -41 -96 -62 -124 -73 -155 -100 -273 -20 -87 -21 -1511 -1 -1600
61 -270 202 -491 412 -647 67 -49 171 -108 240 -137 103 -42 93 -41 399 -41
l296 0 80 30 c43 17 108 47 143 66 l65 36 91 -45 c170 -85 147 -81 482 -84
l301 -4 99 41 c54 23 111 47 126 53 23 9 33 8 65 -10 21 -12 74 -36 118 -52
l80 -31 352 0 c282 0 359 3 385 14 18 8 59 26 91 40 32 14 63 26 70 26 11 0
90 -30 175 -66 51 -22 1233 -21 1288 1 60 24 74 31 137 61 52 25 61 26 80 14
12 -7 57 -31 99 -52 l76 -38 714 0 c611 1 716 3 732 15 11 8 25 15 32 15 7 0
54 26 106 58 181 111 347 305 427 496 64 154 75 214 76 411 0 191 -15 284 -64
400 -101 239 -270 432 -475 545 l-74 41 -5 147 c-7 227 -37 364 -112 514 -19
39 -35 77 -35 85 0 8 16 41 35 74 114 195 154 357 155 634 0 55 3 109 6 120 3
11 31 35 62 54 217 132 401 365 465 591 40 140 42 158 42 325 0 219 -24 325
-113 500 -99 194 -286 374 -487 470 -79 37 -74 36 -240 86 -26 7 -151 13 -347
16 -175 3 -306 9 -302 14 3 5 46 40 97 77 184 137 388 325 557 512 204 227
423 568 559 870 18 41 44 99 57 128 13 29 24 57 24 62 0 6 4 18 10 28 10 18
78 223 100 302 7 25 16 56 21 70 5 14 14 48 20 75 5 28 14 68 19 90 59 277 79
480 79 815 0 340 -15 492 -79 805 -60 293 -206 679 -361 955 -17 30 -42 74
-55 98 -107 192 -322 468 -520 668 -178 180 -253 246 -429 377 -49 37 -94 71
-100 75 -13 11 -155 103 -180 118 -248 146 -488 268 -630 321 -22 8 -49 19
-60 24 -35 16 -219 81 -251 89 -18 4 -36 10 -41 13 -17 11 -291 81 -463 119
-82 18 -1606 21 -1675 4z m1035 -641 c124 -8 270 -21 325 -30 55 -9 126 -20
158 -25 31 -5 72 -13 90 -18 17 -5 59 -15 92 -22 33 -7 71 -16 85 -20 14 -5
52 -16 85 -26 93 -26 232 -72 288 -95 222 -91 415 -186 540 -266 37 -24 69
-43 72 -43 17 0 298 -212 399 -301 357 -313 634 -713 790 -1139 15 -41 30 -82
34 -90 3 -8 12 -35 19 -60 36 -120 38 -127 71 -280 111 -520 82 -1036 -89
-1575 -23 -71 -46 -134 -50 -140 -5 -5 -9 -15 -9 -22 0 -14 -27 -75 -101 -229
-41 -85 -71 -140 -142 -259 -32 -53 -167 -238 -223 -305 -81 -97 -319 -331
-410 -403 -68 -53 -291 -207 -301 -207 -2 0 -27 -15 -56 -33 -29 -17 -101 -56
-162 -86 -60 -29 -118 -57 -128 -62 -31 -17 -160 -66 -272 -105 -101 -34 -119
-38 -216 -38 -64 0 -120 6 -140 14 -184 71 -294 189 -334 356 -34 142 -10 273
72 397 67 101 162 165 318 215 181 58 386 165 561 292 89 65 322 304 390 400
271 387 397 838 364 1307 -11 148 -20 212 -52 338 -11 44 -23 94 -27 110 -17
65 -105 271 -152 352 -27 47 -49 87 -49 89 0 13 -132 185 -201 263 -197 222
-543 459 -834 571 -11 4 -33 13 -49 19 -304 123 -742 191 -1096 170 -142 -8
-288 -24 -355 -39 -433 -93 -714 -218 -995 -443 -314 -251 -553 -611 -671
-1007 -10 -36 -23 -78 -28 -95 -5 -16 -17 -68 -26 -115 -9 -47 -21 -107 -26
-135 -16 -75 -23 -483 -10 -605 20 -196 62 -396 111 -525 5 -11 14 -36 21 -55
45 -126 164 -356 206 -398 7 -8 26 -33 43 -57 44 -64 162 -168 279 -246 57
-38 108 -69 113 -69 4 0 27 -9 51 -19 53 -24 162 -51 208 -51 37 0 126 23 169
43 57 27 148 94 206 154 166 168 276 339 337 523 34 104 67 258 67 314 0 40
30 137 61 197 37 73 138 165 226 207 76 35 82 36 193 37 122 0 170 -10 250
-54 130 -70 215 -190 246 -345 16 -75 15 -89 0 -206 -18 -129 -23 -157 -51
-275 -40 -168 -110 -355 -188 -505 -45 -86 -133 -231 -164 -270 -6 -8 -40 -51
-74 -95 -206 -262 -433 -454 -669 -567 -138 -66 -184 -81 -373 -123 -93 -20
-379 -20 -479 0 -149 31 -259 62 -333 95 -136 61 -200 93 -248 123 -32 21 -60
37 -62 37 -10 0 -191 134 -265 196 -150 125 -324 328 -427 499 -64 106 -134
239 -178 340 -9 22 -21 49 -26 60 -29 68 -90 238 -110 310 -39 139 -45 167
-74 310 -36 175 -65 471 -65 658 0 381 67 785 187 1122 64 181 140 352 222
500 34 60 199 315 210 325 3 3 25 30 48 60 45 60 58 75 166 195 62 69 131 135
262 251 66 57 226 173 343 246 121 75 418 228 444 228 8 0 18 4 23 9 6 5 37
18 70 29 33 12 85 30 115 41 71 24 212 66 270 79 25 6 74 17 110 26 36 8 83
17 105 21 22 3 83 13 135 21 52 8 183 21 290 28 107 8 202 14 210 14 8 1 116
-5 240 -13z m-2 -1699 c193 -42 358 -199 426 -406 68 -209 23 -451 -114 -612
-43 -49 -167 -138 -193 -138 -9 0 -18 -4 -21 -9 -3 -5 -48 -17 -100 -27 -90
-17 -98 -17 -173 0 -183 40 -314 139 -390 296 -37 77 -49 121 -67 230 -6 36 5
137 25 225 6 28 14 66 18 85 13 63 65 153 123 215 116 125 293 178 466 141z
m-1329 -469 c-20 -102 -8 -310 27 -454 36 -150 131 -367 190 -434 21 -24 17
-64 -11 -97 -14 -17 -25 -33 -25 -36 0 -3 -15 -29 -32 -58 -30 -49 -46 -80
-76 -148 -39 -88 -73 -231 -96 -400 -10 -73 -19 -101 -55 -171 -43 -87 -61
-101 -92 -74 -64 59 -147 229 -196 405 -64 229 -79 568 -33 775 20 92 42 181
50 200 4 11 14 36 20 55 49 136 129 278 227 402 86 109 118 120 102 35z m2545
-184 c32 -44 110 -191 127 -238 34 -97 42 -131 69 -279 19 -109 9 -325 -20
-446 -22 -92 -44 -166 -52 -175 -4 -5 -8 -15 -8 -23 0 -23 -97 -209 -139 -269
-22 -30 -58 -75 -81 -100 -52 -55 -60 -48 -60 56 0 194 -65 409 -178 589 -35
58 -35 56 11 107 70 75 159 241 207 385 42 125 69 273 70 388 0 28 4 52 10 52
5 0 25 -21 44 -47z m-1270 -3780 c19 -26 33 -49 31 -51 -7 -8 -115 51 -115 62
0 16 21 36 37 36 7 0 28 -21 47 -47z m-2144 -616 c122 -34 196 -101 282 -257
14 -25 61 -103 105 -175 44 -71 119 -195 167 -275 49 -80 97 -157 107 -172 10
-15 19 -30 19 -33 0 -3 34 -59 75 -125 41 -66 75 -122 75 -124 0 -3 28 -49 61
-102 91 -145 109 -190 109 -280 0 -158 -103 -289 -266 -339 -97 -29 -195 -14
-300 45 -45 27 -124 104 -124 123 0 3 -38 67 -85 142 -47 75 -85 138 -85 140
0 2 -38 65 -85 140 -47 75 -85 139 -85 143 0 15 -46 52 -64 52 -30 -1 -49 -18
-82 -76 -107 -189 -336 -555 -373 -595 -143 -162 -388 -171 -538 -20 -84 84
-120 188 -103 296 10 65 22 91 92 203 32 51 58 95 58 97 0 3 34 59 75 126 41
66 75 122 75 124 0 2 38 65 85 140 47 75 85 138 85 140 0 2 38 66 85 142 47
76 89 145 94 153 5 8 38 62 72 120 71 117 114 169 167 202 87 53 206 71 302
45z m1717 -6 c29 -11 67 -28 85 -40 18 -11 157 -144 308 -296 151 -151 280
-275 287 -275 25 0 33 42 33 167 0 190 29 273 124 361 76 70 124 87 246 87 98
0 109 -2 160 -30 74 -40 136 -104 168 -173 l27 -57 3 -669 c3 -746 6 -706 -67
-812 -102 -149 -318 -197 -492 -109 -19 10 -158 141 -310 292 -228 227 -280
274 -300 271 -24 -3 -24 -3 -29 -173 -5 -162 -6 -173 -33 -225 -98 -191 -317
-262 -507 -165 -52 26 -124 106 -157 172 l-28 58 -3 645 c-3 674 -1 725 40
798 29 53 114 138 157 155 20 8 47 19 61 25 43 18 170 14 227 -7z m3223 -21
c86 -14 159 -51 214 -110 57 -61 82 -111 96 -192 28 -161 -56 -322 -207 -393
-51 -25 -72 -28 -193 -33 -74 -2 -143 -9 -152 -14 -17 -8 -18 -38 -18 -403 0
-322 -3 -406 -16 -462 -28 -122 -90 -200 -204 -256 -59 -29 -73 -32 -155 -31
-75 0 -100 5 -147 27 -73 33 -152 111 -186 185 l-27 57 -3 430 c-2 363 -5 432
-18 446 -12 13 -42 17 -157 21 -128 5 -148 8 -199 32 -33 17 -79 51 -111 84
-202 213 -80 569 210 611 84 12 1194 13 1273 1z m-5669 -2331 c113 -36 181
-94 231 -197 28 -59 31 -74 36 -199 7 -183 -5 -173 219 -173 222 0 213 -6 213
145 0 165 35 262 123 341 75 68 145 94 247 94 129 0 235 -56 309 -163 61 -89
62 -115 59 -817 -4 -688 -1 -651 -61 -753 -26 -44 -102 -109 -157 -135 -205
-94 -446 25 -506 250 -8 30 -14 101 -14 164 0 91 -3 114 -17 125 -12 10 -61
15 -187 17 -231 5 -221 12 -228 -175 -5 -124 -9 -144 -33 -196 -74 -155 -234
-239 -399 -209 -81 15 -137 45 -196 103 -56 56 -86 116 -100 201 -13 80 -13
1201 0 1281 22 137 119 251 250 293 46 15 168 17 211 3z m2310 -4 c68 -24 144
-81 183 -138 67 -98 66 -82 65 -792 0 -685 0 -690 -51 -777 -31 -51 -105 -121
-152 -143 -57 -26 -126 -38 -189 -32 -92 8 -130 23 -200 75 -51 39 -69 60 -99
122 l-38 75 0 670 c0 734 -1 711 60 801 46 66 114 116 195 142 47 16 177 14
226 -3z m1070 4 c56 -18 82 -31 128 -68 43 -34 100 -112 116 -161 5 -14 12
-227 15 -475 l5 -450 180 -5 c179 -5 181 -5 247 -38 102 -50 170 -140 195
-259 38 -182 -75 -361 -266 -422 -22 -7 -167 -11 -407 -11 -353 0 -377 1 -438
21 -105 35 -202 136 -234 245 -16 56 -17 1315 -1 1365 56 174 178 268 350 269
42 0 91 -5 110 -11z m1776 -58 c89 -45 151 -119 184 -217 10 -29 15 -157 19
-474 l5 -435 170 -5 c180 -6 214 -13 292 -63 23 -15 60 -50 81 -79 57 -77 77
-138 76 -234 0 -71 -4 -90 -32 -147 -38 -77 -107 -144 -187 -182 l-54 -25
-398 0 c-366 0 -402 2 -450 19 -29 10 -65 28 -82 40 -51 37 -109 111 -133 170
l-23 56 -3 639 c-3 710 -3 709 63 811 46 73 137 139 215 156 19 5 72 6 117 4
66 -3 93 -10 140 -34z"/>
</g>
</svg>
